# xmcd
#
# Track frame offsets:
#   150
#   26741
#   43161
#   58878
#   78500
#   95375
#   113942
#   136583
#   157050
#   175900
#   194940
#
# Disc length: 2965 seconds
#
# Revision: 0
# Processed by: cddbd v1.4PL0 Copyright (c) Steve Scherf et al.
# Submitted via: uFREEDB 1.6.0
#
DISCID=9d0b930b
DTITLE=Shakira - Unpluged
DYEAR=2002
DGENRE=Blues
TTITLE0=Octavo dia
TTITLE1=Si te vas
TTITLE2=Donde estan los ladrones
TTITLE3=Ciega, sorda y muda
TTITLE4=Inevitable
TTITLE5=Moscas en la casa
TTITLE6=Estoy aqui
TTITLE7=Tu
TTITLE8=Sombra de ti
TTITLE9=No creo
TTITLE10=Ojos asi
EXTD=
EXTT0=
EXTT1=
EXTT2=
EXTT3=
EXTT4=
EXTT5=
EXTT6=
EXTT7=
EXTT8=
EXTT9=
EXTT10=
PLAYORDER=
